<svg fill="none" height="24" viewBox="0 0 24 24" width="24" xmlns="http://www.w3.org/2000/svg" xmlns:xlink="http://www.w3.org/1999/xlink"><linearGradient id="a" gradientUnits="userSpaceOnUse" x1="3.11834" x2="24.2226" y1="22.8349" y2="12.9378"><stop offset="0" stop-color="#30bac6"/><stop offset="1" stop-color="#b6509e"/></linearGradient><path d="m20.1815 8.054c-.0863-4.53502-3.8323-8.1392774-8.3664-8.05246411-2.123.04049491-4.14774.90187811-5.64918 2.40332411-1.50144 1.50144-2.36282 3.52617-2.40332 5.64914 0 .0203-.00259.0432-.00259.06263v.12655 14.84422c0 .1198.02361.2385.06947.3492.04586.1108.11309.2114.19783.2961s.18535.152.29607.1978c.11073.0459.2294.0695.34925.0695s.23852-.0236.34924-.0695c.11073-.0458.21133-.1131.29608-.1978.08474-.0847.15197-.1853.19783-.2961.04586-.1107.06947-.2294.06947-.3492v-2.6528c0-.1198.0236-.2385.06947-.3492.04586-.1108.11308-.2114.19783-.2961.08474-.0848.18535-.152.29607-.1978.11073-.0459.2294-.0695.34925-.0695.11984 0 .23852.0236.34924.0695.11072.0458.21133.113.29608.1978.08474.0847.15196.1853.19783.2961.04586.1107.06947.2294.06947.3492v1.2586c.00519.2386.10364.4658.27426.6327.17063.167.39985.2605.63857.2605s.46794-.0935.63857-.2605c.17062-.1669.26907-.3941.27427-.6327v-1.2586c0-.242.09609-.474.26714-.6452.17106-.1711.40308-.2673.645-.2674.242.0001.4741.0963.6452.2674.1712.1711.2673.4032.2675.6452v.3455c0 .2421.0961.4742.2673.6454.1711.1711.4032.2673.6453.2673.242 0 .4741-.0962.6453-.2673.1711-.1712.2673-.4033.2673-.6454v-.3455c.0052-.2386.1036-.4658.2743-.6327.1706-.167.3998-.2605.6385-.2605.2388 0 .468.0935.6386.2605.1706.1669.2691.3941.2743.6327v1.2586c0 .242.0961.4742.2673.6453.1711.1712.4032.2673.6453.2673.242 0 .4742-.0961.6453-.2673.1712-.1711.2673-.4033.2673-.6453v-1.2586c0-.242.0961-.474.2672-.6452.171-.1711.403-.2673.645-.2674.242.0001.4741.0963.6452.2674s.2673.4032.2674.6452v2.6528c0 .242.0962.4742.2673.6453.1712.1711.4033.2673.6453.2673.2421 0 .4742-.0962.6453-.2673.1712-.1711.2673-.4033.2673-.6453v-14.97034c-.0025-.02159-.0038-.04319-.0056-.06306zm-11.23775 1.31559c-.8068 0-1.46114-.74892-1.46114-1.67536s.65434-1.67537 1.46114-1.67537c.80681 0 1.46115.74893 1.46115 1.67537s-.65305 1.67536-1.46028 1.67536zm3.09335 2.36471c-.7343 0-1.326-.4362-1.326-.9748s.5939-.2134 1.326-.2134 1.3259-.3248 1.3259.2134c0 .5381-.5921.9743-1.3251.9743zm2.9633-2.36471c-.8068 0-1.4612-.74892-1.4612-1.67536s.6544-1.67537 1.4612-1.67537 1.4611.74893 1.4611 1.67537-.6539 1.67536-1.4607 1.67536z" fill="url(#a)"/><path d="m3.88306 6.82446s1.58855-5.04467 8.17904-4.99587c8.179.09891 8.1198 9.26011 8.1198 9.26011s.7377-6.42205-3.098-9.27134c-3.8358-2.84929-7.0833-1.585095-8.57037-1.026208-1.48706.558888-4.31043 2.929628-4.63047 6.033308z" fill="#fff" opacity=".06"/><path d="m4.92749 4.02206s2.66789-2.90198 6.36501-2.94042c3.6971-.03844 6.2877 1.17349 7.5057 3.66645.7711 1.7058 1.2402 3.53255 1.3864 5.39881 0 0 .7377-5.47957-3.0981-8.328-3.8357-2.84842-7.0811-1.585959-8.57073-1.027072-1.48964.558892-2.53918 1.793282-3.58828 3.230232z" fill="#fff" opacity=".15"/><g fill="#000"><path d="m7.48307 7.69288s.10279-1.79155 1.46157-1.79371c1.35876-.00216 1.46116 1.79371 1.46116 1.79371s-.2834-1.67537-1.46116-1.67537c-.84135.0013-1.49872 1.29745-1.46157 1.67537z" opacity=".21"/><path d="m13.5405 7.69288s.1028-1.79155 1.4612-1.79371c1.3583-.00216 1.4611 1.79371 1.4611 1.79371s-.2829-1.67537-1.4611-1.67537c-.8414.0013-1.4996 1.29745-1.4612 1.67537z" opacity=".21"/><path d="m8.94456 5.68164c-.64786 0-1.65161.72733-1.65161 2.01096-.02233.46381.13816.91788.44698 1.26466.30882.34677.74133.55859 1.20463.58995.62626 0 1.57344-.56926 1.57344-1.85461 0-1.28536-.92601-2.01096-1.57344-2.01096zm.02202 3.65911c-.9165.02894-1.46027-.99727-1.46027-1.74188-.00483-.19318.02845-.38542.09792-.56575.06947-.18032.17378-.3452.30698-.48521.13319-.14001.29266-.25242.46929-.3308.17664-.07838.36698-.1212.56017-.12602h.02591c.9096 0 1.30302.76188 1.30302 1.50822 0 .74633-.38521 1.71467-1.30302 1.74144z" opacity=".1"/><path d="m15.0543 5.68164c-.6478 0-1.652.72733-1.652 2.01096-.0222.46386.1384.91792.4473 1.26469.3089.34676.7414.55856 1.2047.58992.6263 0 1.573-.56926 1.573-1.85461 0-1.28536-.926-2.01096-1.573-2.01096zm.0216 3.65911c-.9156.02894-1.4602-.99727-1.4602-1.74188-.0097-.39019.1361-.76824.4051-1.05099.2691-.28275.6395-.44706 1.0297-.45679h.0254c.9096 0 1.3035.76188 1.3035 1.50822 0 .74633-.3865 1.71467-1.3035 1.74144z" opacity=".1"/><path d="m10.7391 10.9551s.219.7774 1.3169.7774c.9537-.0216 1.2335-.6293 1.2685-.7126-.0348.3053-.1846.586-.419.7849-.2343.1988-.5356.301-.8426.2858-.3234.0133-.6398-.0964-.8854-.3071-.2457-.2107-.4024-.5068-.4384-.8284z" opacity=".1"/></g><g fill="#fff" opacity=".3"><path d="m19.4417 13.2214c-.0344 0-.0673.0137-.0916.038s-.038.0572-.038.0916v3.9364c0 .0344.0137.0673.038.0916s.0572.038.0916.038.0673-.0137.0916-.038.038-.0572.038-.0916v-3.9368c-.0001-.0343-.0138-.0672-.0381-.0914s-.0572-.0378-.0915-.0378z" opacity=".3"/><path d="m19.4417 11.1836c-.0344 0-.0673.0136-.0916.0379s-.038.0573-.038.0917v.7968c0 .0344.0137.0674.038.0917s.0572.0379.0916.0379.0673-.0136.0916-.0379.038-.0573.038-.0917v-.7968c0-.0344-.0137-.0674-.038-.0917s-.0572-.0379-.0916-.0379z" opacity=".3"/><path d="m4.52142 10.1846c-.03437 0-.06732.0136-.09162.0379s-.03795.0573-.03795.0916v2.3665c0 .017.00335.0338.00986.0495.00651.0158.01605.03.02809.0421.01203.012.02631.0216.04203.0281s.03257.0098.04959.0098c.01701 0 .03386-.0033.04958-.0098s.03001-.0161.04204-.0281c.01203-.0121.02158-.0263.02809-.0421.00651-.0157.00986-.0325.00986-.0495v-2.3669c-.00011-.0343-.01382-.0671-.0381-.0913-.02429-.0242-.05718-.0378-.09147-.0378z" opacity=".3"/></g></svg>